<?xml version="1.0" encoding="iso-8859-1"?>
<!-- Generator: Adobe Illustrator 16.0.0, SVG Export Plug-In . SVG Version: 6.00 Build 0)  -->
<!DOCTYPE svg PUBLIC "-//W3C//DTD SVG 1.1//EN" "http://www.w3.org/Graphics/SVG/1.1/DTD/svg11.dtd">
<svg xmlns="http://www.w3.org/2000/svg" xmlns:xlink="http://www.w3.org/1999/xlink" version="1.1" id="Capa_1" x="0px" y="0px" width="512px" height="512px" viewBox="0 0 906.833 906.833" style="enable-background:new 0 0 906.833 906.833;" xml:space="preserve">
<g>
	<g>
		<path d="M437.174,594.033c-22.524-13.367-43.24-29.658-61.704-48.554c-20.89-21.378-38.236-45.272-51.816-71.297l-31.163,31.163    c-6.555,6.555-17.184,6.555-23.738,0l-0.24-0.24c-6.555-6.556-17.184-6.556-23.739,0l-24.439,24.439l-20.7-20.7    c-4.821-4.821-12.638-4.821-17.459,0l-40.987,40.987c-4.821,4.821-4.821,12.638,0,17.459l20.7,20.7L12.606,737.273    c-6.556,6.556-6.556,17.185,0,23.739l140.903,140.904c6.555,6.555,17.184,6.555,23.739,0L409.416,669.75    c6.555-6.556,6.555-17.185,0-23.739l-0.24-0.24c-6.555-6.555-6.555-17.184,0-23.738L437.174,594.033z M101.36,751.104    c-3.199,0-6.398-1.221-8.839-3.661c-4.882-4.882-4.882-12.796,0-17.678l58.949-58.949c4.881-4.881,12.797-4.881,17.678,0    c4.882,4.883,4.882,12.796,0,17.679l-58.949,58.948C107.758,749.884,104.559,751.104,101.36,751.104z M147.478,784.722    c-2.44,2.44-5.64,3.661-8.839,3.661s-6.398-1.221-8.839-3.661c-4.882-4.882-4.882-12.796,0-17.678l58.948-58.948    c4.881-4.881,12.797-4.881,17.678,0c4.882,4.882,4.882,12.796,0,17.678L147.478,784.722z M243.704,763.052L184.756,822    c-2.44,2.439-5.64,3.661-8.839,3.661c-3.199,0-6.398-1.222-8.839-3.661c-4.882-4.882-4.882-12.796,0-17.679l58.948-58.947    c4.881-4.881,12.797-4.881,17.678,0C248.586,750.256,248.586,758.17,243.704,763.052z" fill="#333333"/>
		<path d="M847.684,243.281L498.258,592.709c-1.396,1.396-2.877,2.675-4.422,3.848l21.836,41.894    c3.316,6.365,11.861,7.68,16.939,2.603l363.418-363.419c5.076-5.077,3.764-13.622-2.602-16.94l-41.893-21.834    C850.359,240.406,849.078,241.886,847.684,243.281z" fill="#333333"/>
		<path d="M459.629,578.032c2.676,1.443,5.594,2.149,8.486,2.149c4.566,0,9.072-1.758,12.465-5.149l349.426-349.428    c5.48-5.48,6.789-13.921,3.113-20.745c-12.422-23.062-28.355-44.731-47.83-64.204c-53.803-53.803-124.312-80.703-194.83-80.701    c-20.717,0-41.432,2.342-61.725,6.987l-10.408-10.406L508.182,46.39l-9.143-9.144c-49.663-49.662-130.182-49.662-179.844,0    l-26.976,26.977c-37.764,37.764-46.803,93.368-27.134,139.681L91.671,377.318c-6.507,6.508-6.507,17.058,0,23.564l25.898,25.897    c6.507,6.508,17.057,6.508,23.564,0l155.458-155.458l11.443-11.444l3.301,3.3l10.391,10.391    c-13.995,60.608-7.183,124.99,20.543,181.999c12.664,26.039,29.684,50.542,51.082,72.439c18.834,19.274,39.79,35.174,62.12,47.729    C456.852,576.514,458.236,577.28,459.629,578.032z" fill="#333333"/>
	</g>
</g>
<g>
</g>
<g>
</g>
<g>
</g>
<g>
</g>
<g>
</g>
<g>
</g>
<g>
</g>
<g>
</g>
<g>
</g>
<g>
</g>
<g>
</g>
<g>
</g>
<g>
</g>
<g>
</g>
<g>
</g>
</svg>
