<?xml version="1.0" encoding="iso-8859-1"?>
<!-- Generator: Adobe Illustrator 18.0.0, SVG Export Plug-In . SVG Version: 6.00 Build 0)  -->
<!DOCTYPE svg PUBLIC "-//W3C//DTD SVG 1.1//EN" "http://www.w3.org/Graphics/SVG/1.1/DTD/svg11.dtd">
<svg xmlns="http://www.w3.org/2000/svg" xmlns:xlink="http://www.w3.org/1999/xlink" version="1.1" id="Capa_1" x="0px" y="0px" viewBox="0 0 297.003 297.003" style="enable-background:new 0 0 297.003 297.003;" xml:space="preserve" width="512px" height="512px">
<g>
	<path d="M294.073,97.015L199.988,2.93c-3.907-3.904-10.24-3.906-14.149,0c-34.288,34.287-62.293,70.884-78.856,103.05   c-13.242,25.717-17.19,44.904-16.225,59.189l-62.601,41.292c-9.22,6.081-18.939,18.522-22.607,28.941l-3.789,10.761   c-4.223,11.994-0.627,27.821,8.365,36.813l3.898,3.898c6.453,6.453,16.425,10.126,25.975,10.126c3.758,0,7.451-0.569,10.839-1.761   l10.763-3.789c10.419-3.669,22.861-13.387,28.94-22.606l41.269-62.566c1.366,0.093,2.754,0.15,4.175,0.15   c46.318,0,112.033-49.211,158.087-95.266C297.98,107.256,297.98,100.922,294.073,97.015z M73.838,257.83   c-3.64,5.521-12.641,12.551-18.881,14.748l-10.763,3.789c-4.706,1.659-12.493-0.11-16.02-3.64l-3.898-3.898   c-3.529-3.528-5.297-11.313-3.64-16.02l3.789-10.761c2.197-6.24,9.228-15.241,14.75-18.883l57.348-37.828   c1.929,3.382,4.186,6.221,6.554,8.589c2.592,2.592,5.454,4.784,8.578,6.574L73.838,257.83z M135.985,186.421   c-8.153,0-14.29-2.174-18.761-6.644c-14.782-14.781-1.616-46.841,7.547-64.636c14.289-27.749,38.893-60.491,68.208-90.922   l79.806,79.806C221.368,153.606,167.156,186.421,135.985,186.421z" fill="#333333"/>
	<path d="M49.847,237.148c-2.632,0-5.213,1.071-7.073,2.931c-1.861,1.871-2.931,4.442-2.931,7.083c0,2.631,1.07,5.202,2.931,7.073   c1.86,1.861,4.441,2.921,7.073,2.921c2.631,0,5.212-1.06,7.072-2.921c1.861-1.871,2.932-4.442,2.932-7.073   c0-2.641-1.071-5.222-2.932-7.083C55.059,238.219,52.478,237.148,49.847,237.148z" fill="#333333"/>
</g>
<g>
</g>
<g>
</g>
<g>
</g>
<g>
</g>
<g>
</g>
<g>
</g>
<g>
</g>
<g>
</g>
<g>
</g>
<g>
</g>
<g>
</g>
<g>
</g>
<g>
</g>
<g>
</g>
<g>
</g>
</svg>
